<svg width="947" height="430" xmlns="http://www.w3.org/2000/svg" xmlns:xlink="http://www.w3.org/1999/xlink" overflow="hidden"><defs><clipPath id="clip0"><rect x="-33" y="-36" width="947" height="430"/></clipPath><clipPath id="clip1"><path d="M333.915 120.619 98.7013 2.70723 0.579987 198.443 235.793 316.354Z" fill-rule="evenodd" clip-rule="evenodd"/></clipPath><clipPath id="clip2"><path d="M333.915 120.619 98.7013 2.70724 0.579987 198.443 235.793 316.354Z" fill-rule="evenodd" clip-rule="evenodd"/></clipPath><clipPath id="clip3"><path d="M333.915 120.619 98.7013 2.70724 0.579987 198.443 235.793 316.354Z" fill-rule="evenodd" clip-rule="evenodd"/></clipPath><clipPath id="clip4"><path d="M0.942431 183.369 286.756 251.141 253.184 392.723-32.6294 324.951Z" fill-rule="evenodd" clip-rule="evenodd"/></clipPath><clipPath id="clip5"><path d="M0.942431 183.369 286.756 251.141 253.184 392.723-32.6295 324.951Z" fill-rule="evenodd" clip-rule="evenodd"/></clipPath><clipPath id="clip6"><path d="M13.3645 130.982 299.178 198.754 253.184 392.723-32.6295 324.951Z" fill-rule="evenodd" clip-rule="evenodd"/></clipPath></defs><g clip-path="url(#clip0)" transform="translate(33 36)"><text fill="#004C8F" font-family="Calibri,Calibri_MSFontService,sans-serif" font-weight="400" font-size="117" transform="translate(321.33 110)">The No<tspan font-size="117" x="357.5" y="0">BS </tspan><tspan font-size="117" x="0" y="113">Manifesto</tspan></text><g clip-path="url(#clip1)"><g clip-path="url(#clip2)"><g clip-path="url(#clip3)"><path d="M77.5456 72.756 77.5456 59.2996C77.5456 52.9135 72.528 47.8958 66.1418 47.8958 59.7557 47.8958 54.7381 52.9135 54.7381 59.2996L54.7381 72.756C54.7381 79.1421 59.7557 84.1598 66.1418 84.1598 72.528 84.1598 77.5456 78.9141 77.5456 72.756Z" fill="#004C8F" transform="matrix(-1.07427 -0.538526 -0.44814 0.893963 333.915 120.619)"/><path d="M98.9847 76.4052 104.915 76.4052 104.915 52.4573C104.915 46.0712 99.897 41.0536 93.5109 41.0536 87.1248 41.0536 82.1071 46.0712 82.1071 52.4573L82.1071 79.8264C82.1071 82.5633 83.0194 85.0721 84.844 87.1248 86.6686 80.7387 92.3705 76.4052 98.9847 76.4052Z" fill="#004C8F" transform="matrix(-1.07427 -0.538526 -0.44814 0.893963 333.915 120.619)"/><path d="M125.441 106.055C115.406 107.195 108.336 116.318 109.476 126.354L104.915 126.81C104.23 120.88 106.055 114.722 109.704 109.932 110.845 108.336 112.213 106.967 113.81 105.827L98.9847 105.827C91.4582 105.827 85.0721 100.125 84.1598 92.5986 80.9667 90.3178 78.686 86.8967 77.7737 83.2475 72.756 88.9494 64.5453 90.0898 58.1592 86.4406 59.9838 105.599 65.0015 131.371 79.5983 138.898L79.5983 181.092 142.547 181.092 142.547 142.319C143.916 141.407 145.284 140.494 146.652 139.582 157.828 131.599 164.214 118.599 163.986 104.915L163.986 104.915C163.986 91.6863 153.267 80.9667 140.038 80.9667 140.038 80.9667 140.038 80.9667 140.038 80.9667L99.4408 80.9667C93.967 80.9667 89.4055 84.844 88.7213 90.3178 88.2652 96.0197 92.3705 101.037 97.8443 101.494 98.0724 101.494 98.5285 101.494 98.7566 101.494L127.266 101.494 127.266 106.055 125.441 106.055Z" fill="#004C8F" transform="matrix(-1.07427 -0.538526 -0.44814 0.893963 333.915 120.619)"/><path d="M132.284 70.7034 132.284 47.8958C132.284 41.5097 127.266 36.4921 120.88 36.4921 114.494 36.4921 109.476 41.5097 109.476 47.8958L109.476 76.4052 132.284 76.4052 132.284 70.7034Z" fill="#004C8F" transform="matrix(-1.07427 -0.538526 -0.44814 0.893963 333.915 120.619)"/><path d="M154.407 80.2825C157.828 78.2298 159.653 74.5806 159.653 70.7034L159.653 50.1766C159.653 43.7905 154.635 38.7728 148.249 38.7728 141.863 38.7728 136.845 43.7905 136.845 50.1766L136.845 70.7034C136.845 72.756 137.301 74.8087 138.442 76.4052L140.038 76.4052C145.056 76.4052 150.074 77.7737 154.407 80.2825Z" fill="#004C8F" transform="matrix(-1.07427 -0.538526 -0.44814 0.893963 333.915 120.619)"/></g></g></g><g clip-path="url(#clip4)"><g clip-path="url(#clip5)"><g clip-path="url(#clip6)"><path d="M70.6023 184.812 93.4443 107.98 58.1431 107.98 75.6276 15.0341 127.873 15.0341 105.904 83.0616 141.205 83.0616 70.6023 184.812Z" fill="#004C8F" transform="matrix(1.43374 0.339969 -0.230722 0.97302 13.3645 130.982)"/></g></g></g><path d="M46.5001 137.5C46.5001 72.8828 103.136 20.5001 173 20.5001 242.864 20.5001 299.5 72.8828 299.5 137.5 299.5 202.118 242.864 254.5 173 254.5 103.136 254.5 46.5001 202.118 46.5001 137.5ZM74.1167 137.5C74.1167 186.865 118.388 226.884 173 226.884 227.612 226.884 271.883 186.865 271.883 137.5 271.883 88.1351 227.612 48.1167 173 48.1167 118.388 48.1167 74.1167 88.1351 74.1167 137.5Z" stroke="#004C8F" stroke-width="1.33333" stroke-miterlimit="8" fill="#004C8F" fill-rule="evenodd"/></g></svg>